<svg xmlns="http://www.w3.org/2000/svg" xmlns:xlink="http://www.w3.org/1999/xlink" width="200" height="200" viewBox="0 0 200 200" fill="none">
<g >
<path     fill="#FFFFFF"  d="M44.9481 72.0592L28.6786 72.0133L28.7094 61.0759L83.26 61.2295L83.2292 72.167L63.4734 72.1113L95.6387 132.085L128.483 72.2944L108.932 72.2393L108.963 61.3019L160.369 61.4466L160.338 72.3841L144.958 72.3408L102.024 146.39L87.2586 146.349L44.9481 72.0592ZM105.292 151.185L147.542 77.1332L165.247 77.1831L165.281 64.9468L168.016 64.9545L167.974 79.7884L149.243 79.7357L106.994 153.787L93.8003 153.75L92.3721 151.148L105.292 151.185ZM71.7998 76.92L88.1376 76.966L88.1721 64.7297L90.9064 64.7374L90.8647 79.5713L76.3042 79.5303L97.9966 120.129L96.3481 122.927L71.7998 76.92ZM113.362 77.037L122.112 77.0616L120.669 79.6552L113.355 79.6346L113.362 77.037ZM33.1085 76.811L42.8082 79.436L44.3121 79.4402L33.1012 79.4086L33.1085 76.811Z">
</path>
</g>
</svg>
